<?xml version="1.0" encoding="UTF-8"?>
<!-- Created with Inkscape (http://www.inkscape.org/) -->
<svg width="1920.0005" height="1080" version="1.1" viewBox="0 0 1920.0005 1080" xml:space="preserve" xmlns="http://www.w3.org/2000/svg" xmlns:cc="http://creativecommons.org/ns#" xmlns:dc="http://purl.org/dc/elements/1.1/" xmlns:rdf="http://www.w3.org/1999/02/22-rdf-syntax-ns#" xmlns:xlink="http://www.w3.org/1999/xlink"><metadata><rdf:RDF><cc:Work rdf:about=""><dc:format>image/svg+xml</dc:format><dc:type rdf:resource="http://purl.org/dc/dcmitype/StillImage"/><dc:title/></cc:Work></rdf:RDF></metadata><defs><linearGradient id="linearGradient58" x2="1" gradientTransform="matrix(6447.7389,3722.6039,-3722.6039,6447.7389,-376.98114,1095.5115)" gradientUnits="userSpaceOnUse"><stop stop-color="#fff" offset="0"/><stop stop-color="#fff" offset="1"/></linearGradient><linearGradient id="linearGradient116" x2="1" gradientTransform="matrix(5798.0607,3347.512,-3347.512,5798.0607,-325.1413,780.70556)" gradientUnits="userSpaceOnUse"><stop stop-color="#fff" offset="0"/><stop stop-color="#fff" offset="1"/></linearGradient><linearGradient id="linearGradient174" x2="1" gradientTransform="matrix(5489.1391,3169.1561,-3169.1561,5489.1391,419.6973,2302.534)" gradientUnits="userSpaceOnUse"><stop stop-color="#fff" offset="0"/><stop stop-color="#fff" offset="1"/></linearGradient><linearGradient id="linearGradient4681" x1="-3152.9543" x2="-1512.6322" y1="-3177.5103" y2="-3177.5103" gradientTransform="matrix(.49380543 0 0 .99731537 2873.1327 4075.6035)" gradientUnits="userSpaceOnUse"><stop stop-color="#e7ecf0" offset="0"/><stop stop-color="#a9c6de" offset="1"/></linearGradient><linearGradient id="linearGradient4523" x1="201.70731" x2="711.79407" y1="63.705475" y2="63.705475" gradientTransform="matrix(.79087452 0 0 4.4592308 517.06021 -1244.0776)" gradientUnits="userSpaceOnUse"><stop stop-color="#e7ecf0" stop-opacity="0" offset="0"/><stop stop-color="#e7ecf0" offset="1"/></linearGradient></defs><g transform="matrix(1.3333333,0,0,-1.3333333,-248.8315,2834.9156)"><rect transform="matrix(0,1,1,0,0,0)" x="1316.1868" y="186.62363" width="810" height="1440" fill="url(#linearGradient4681)"/><path transform="matrix(.75000002 0 0 -.75000002 0 2318.0601)" d="m248.83203 470.13477v865.69533h1919.99997v-311.1016c-40.8484 8.6544-82.9731 14.4803-126.5703 16.9942-453.1844 26.1287-1319.72421-482.64569-1793.42967-571.58793z" fill="url(#linearGradient58)" opacity=".16000001"/><path transform="matrix(.75000002 0 0 -.75000002 0 2318.0601)" d="m472.00391 749.87305c-76.82331-0.25863-151.46722 2.50681-223.17188 9.3789v576.57815h1919.99997v-530.25979c-483.1701 102.65038-1145.7172-53.84195-1696.82809-55.69726z" fill="url(#linearGradient116)" opacity=".16000001"/><path transform="matrix(.75000002 0 0 -.75000002 0 2318.0601)" d="m2168.832 335.64258c-379.0278 176.35719-693.2431 642.14158-983.1074 1000.18752h983.1074z" fill="url(#linearGradient174)" opacity=".16000001"/></g><rect transform="rotate(90)" x="676.58533" y="-1920" width="403.41461" height="1920" fill="url(#linearGradient4523)"/></svg>
